<svg version="1.0" xmlns="http://www.w3.org/2000/svg" viewBox="50 175 450 120" width="100%" height="100%" preserveAspectRatio="xMidYMid meet">
  <g fill="#3d3935">
    <path d="M315.09509,230.92086h-45.16609v16.31655h23.88364c-3.90178,10.28652 -13.71536,15.72537 -24.35658,15.72537c-14.77948,0 -26.48483,-12.41476 -26.48483,-27.90366c0,-15.60713 11.70535,-28.14013 26.48483,-28.14013c10.40475,0 19.50891,5.91179 24.12011,14.54301l14.66124,-10.64123c-7.9218,-12.88771 -22.46481,-21.40069 -38.89959,-21.40069c-25.066,0 -45.16609,20.4548 -45.16609,45.63904c0,25.18423 20.10009,45.5208 45.28433,45.5208c25.30247,0 45.63904,-20.92774 45.63904,-46.93963z"/>
    <path d="M324.6722,250.42978c0,16.43478 11.11417,29.91367 26.83954,29.91367c5.67532,0 13.24241,-1.77354 16.67125,-5.55708v4.25649h16.67125v-59.7091h-16.67125v29.6772c0,10.99593 -6.97591,14.66124 -14.42477,14.66124c-6.73944,0 -12.29653,-6.03003 -12.29653,-14.66124v-29.6772h-16.78949z"/>
    <path d="M396.67783,190.95715v88.0857h16.78949v-4.25649c2.60119,3.42884 9.10416,5.55708 14.54301,5.55708c16.31655,0 29.32249,-14.07007 29.32249,-31.09603c0,-17.26243 -13.36065,-31.21426 -29.32249,-31.21426c-5.32061,0 -11.94182,2.60119 -14.54301,5.43885v-32.51486zM426.35502,263.67219c-7.80357,0 -13.59712,-5.91179 -13.59712,-14.42477c0,-8.39474 5.79356,-14.42477 13.59712,-14.42477c7.68533,0 13.95183,6.03003 13.95183,14.42477c0,8.51298 -6.2665,14.42477 -13.95183,14.42477z"/>
    <path d="M474.94995,208.81076c5.67532,0 10.05005,-4.37473 10.05005,-9.5771c0,-4.84767 -4.37473,-9.2224 -10.05005,-9.2224c-5.20238,0 -9.69534,4.49296 -9.69534,9.2224c0,5.20238 4.49296,9.5771 9.69534,9.5771zM483.46293,219.33375h-16.78949v59.7091h16.78949z"/>
    <path d="M92.18213,198.28384c-7.52805,0 -13.92915,2.65961 -19.2033,7.97883c-5.31922,5.27415 -7.97883,11.67524 -7.97883,19.2033c0,7.48297 2.65961,13.86153 7.97883,19.13567c5.27415,5.31922 11.67524,7.97883 19.2033,7.97883v-12.77966c-3.96688,0 -7.37028,-1.39742 -10.2102,-4.19227c-2.79484,-2.83992 -4.19227,-6.22078 -4.19227,-10.14258c0,-3.96688 1.39742,-7.37028 4.19227,-10.2102c2.83992,-2.79484 6.24332,-4.19227 10.2102,-4.19227c3.9218,0 7.30266,1.39742 10.14258,4.19227c2.79484,2.83992 4.19227,6.24332 4.19227,10.2102v38.27135c0,3.96688 -1.39742,7.37028 -4.19227,10.2102c-2.83992,2.79484 -6.22078,4.19227 -10.14258,4.19227c-3.96688,0 -7.37028,-1.39742 -10.2102,-4.19227c-2.79484,-2.83992 -4.19227,-6.24332 -4.19227,-10.2102h-12.77966c0,7.52805 2.65961,13.92915 7.97883,19.2033c5.27415,5.31922 11.67524,7.97883 19.2033,7.97883c7.48297,0 13.86153,-2.65961 19.13567,-7.97883c5.31922,-5.27415 7.97883,-11.67524 7.97883,-19.2033v-38.27135c0,-7.52805 -2.65961,-13.92915 -7.97883,-19.2033c-5.27415,-5.31922 -11.6527,-7.97883 -19.13567,-7.97883zM153.24049,211.0635c3.9218,0 7.30266,1.39742 10.14258,4.19227c2.79484,2.83992 4.19227,6.22078 4.19227,10.14258c0,3.96688 -1.39742,7.37028 -4.19227,10.2102c-2.83992,2.79484 -6.22078,4.19227 -10.14258,4.19227c-3.96688,0 -7.37028,-1.39742 -10.2102,-4.19227c-2.79484,-2.83992 -4.19227,-6.24332 -4.19227,-10.2102v-46.3178h-12.77966v47.94062h0.06762c0.4057,7.12235 3.22309,13.16282 8.45215,18.12142c5.22906,4.9586 11.44985,7.43789 18.66236,7.43789c7.48297,0 13.86153,-2.65961 19.13567,-7.97883c5.31922,-5.27415 7.97883,-11.67524 7.97883,-19.2033c0,-7.48297 -2.65961,-13.86153 -7.97883,-19.13567c-5.27415,-5.31922 -11.6527,-7.97883 -19.13567,-7.97883z"/>
  </g>
</svg>