<svg version="1.0" xmlns="http://www.w3.org/2000/svg" viewBox="50 175 140 120" width="100%" height="100%" preserveAspectRatio="xMidYMid meet">
  <g fill="#3d3935">
    <path d="M92.18213,198.28384c-7.52805,0 -13.92915,2.65961 -19.2033,7.97883c-5.31922,5.27415 -7.97883,11.67524 -7.97883,19.2033c0,7.48297 2.65961,13.86153 7.97883,19.13567c5.27415,5.31922 11.67524,7.97883 19.2033,7.97883v-12.77966c-3.96688,0 -7.37028,-1.39742 -10.2102,-4.19227c-2.79484,-2.83992 -4.19227,-6.22078 -4.19227,-10.14258c0,-3.96688 1.39742,-7.37028 4.19227,-10.2102c2.83992,-2.79484 6.24332,-4.19227 10.2102,-4.19227c3.9218,0 7.30266,1.39742 10.14258,4.19227c2.79484,2.83992 4.19227,6.24332 4.19227,10.2102v38.27135c0,3.96688 -1.39742,7.37028 -4.19227,10.2102c-2.83992,2.79484 -6.22078,4.19227 -10.14258,4.19227c-3.96688,0 -7.37028,-1.39742 -10.2102,-4.19227c-2.79484,-2.83992 -4.19227,-6.24332 -4.19227,-10.2102h-12.77966c0,7.52805 2.65961,13.92915 7.97883,19.2033c5.27415,5.31922 11.67524,7.97883 19.2033,7.97883c7.48297,0 13.86153,-2.65961 19.13567,-7.97883c5.31922,-5.27415 7.97883,-11.67524 7.97883,-19.2033v-38.27135c0,-7.52805 -2.65961,-13.92915 -7.97883,-19.2033c-5.27415,-5.31922 -11.6527,-7.97883 -19.13567,-7.97883zM153.24049,211.0635c3.9218,0 7.30266,1.39742 10.14258,4.19227c2.79484,2.83992 4.19227,6.22078 4.19227,10.14258c0,3.96688 -1.39742,7.37028 -4.19227,10.2102c-2.83992,2.79484 -6.22078,4.19227 -10.14258,4.19227c-3.96688,0 -7.37028,-1.39742 -10.2102,-4.19227c-2.79484,-2.83992 -4.19227,-6.24332 -4.19227,-10.2102v-46.3178h-12.77966v47.94062h0.06762c0.4057,7.12235 3.22309,13.16282 8.45215,18.12142c5.22906,4.9586 11.44985,7.43789 18.66236,7.43789c7.48297,0 13.86153,-2.65961 19.13567,-7.97883c5.31922,-5.27415 7.97883,-11.67524 7.97883,-19.2033c0,-7.48297 -2.65961,-13.86153 -7.97883,-19.13567c-5.27415,-5.31922 -11.6527,-7.97883 -19.13567,-7.97883z"/>
  </g>
</svg>