<svg xmlns="http://www.w3.org/2000/svg" viewBox="250 175 240 120" width="100%" height="100%" preserveAspectRatio="xMidYMid meet">
  <g fill="currentColor">
  <path d="M283.8011,277.60891c-4.95041,0 -9.31149,-2.59307 -11.7867,-6.71842l-13.5547,9.78296c5.53975,8.13282 14.73337,13.5547 25.3414,13.5547c16.85497,0 30.40968,-13.67257 30.40968,-30.29181v-58.93348h-16.73711v4.12534c-2.59307,-2.82881 -9.19362,-5.42188 -14.49764,-5.42188c-15.91204,0 -29.23101,13.9083 -29.23101,31.11688c0,16.97284 12.96537,30.99901 29.23101,30.99901c5.42188,0 11.90456,-2.12161 14.49764,-5.53975v4.71468c0,7.07202 -6.01121,12.61176 -13.67257,12.61176zM284.62617,249.20297c-7.66135,0 -13.9083,-5.89335 -13.9083,-14.37977c0,-8.36855 6.24695,-14.37977 13.9083,-14.37977c7.77922,0 13.5547,6.01121 13.5547,14.37977c0,8.48642 -5.77548,14.37977 -13.5547,14.37977z"/>
    <path d="M325.17241,236.00187c0,16.38351 11.07949,29.82034 26.7558,29.82034c5.65761,0 13.2011,-1.768 16.61924,-5.53975v4.24321h16.61924v-59.52281h-16.61924v29.58461c0,10.96163 -6.95415,14.6155 -14.37977,14.6155c-6.71842,0 -12.25816,-6.01121 -12.25816,-14.6155v-29.58461h-16.73711z"/>
    <path d="M396.95338,176.71479v87.81088h16.73711v-4.24321c2.59307,3.41814 9.07576,5.53975 14.49764,5.53975c16.26564,0 29.23101,-14.02617 29.23101,-30.99901c0,-17.20858 -13.31897,-31.11688 -29.23101,-31.11688c-5.30401,0 -11.90456,2.59307 -14.49764,5.42188v-32.41341zM426.53799,249.20297c-7.77922,0 -13.5547,-5.89335 -13.5547,-14.37977c0,-8.36855 5.77548,-14.37977 13.5547,-14.37977c7.66135,0 13.9083,6.01121 13.9083,14.37977c0,8.48642 -6.24695,14.37977 -13.9083,14.37977z"/>
    <path d="M474.98131,194.5127c5.65761,0 10.01869,-4.36108 10.01869,-9.54722c0,-4.83255 -4.36108,-9.19362 -10.01869,-9.19362c-5.18615,0 -9.66509,4.47894 -9.66509,9.19362c0,5.18615 4.47894,9.54722 9.66509,9.54722zM483.46773,205.00286h-16.73711v59.52281h16.73711z"/>
  </g>
</svg>
